<svg width="19" height="19" viewBox="0 0 19 19" fill="none" xmlns="http://www.w3.org/2000/svg">
<path d="M9.5 2.77087L11.875 5.14587M9.5 11.4792V2.77087V11.4792ZM9.5 2.77087L7.125 5.14587L9.5 2.77087Z" stroke="black" stroke-opacity="0.5" stroke-width="1.5" stroke-linecap="round" stroke-linejoin="round"/>
<path d="M12.6667 15.0416H6.33337C5.55253 15.0416 5.30037 15.0379 5.10825 15.0075C3.92263 14.8197 2.99277 13.8898 2.80499 12.7042C2.77456 12.5121 2.77087 12.2599 2.77087 11.4791C2.77087 10.6983 2.77456 10.4462 2.80499 10.254C2.99277 9.06842 3.92263 8.13853 5.10825 7.95075C5.30037 7.92035 5.55253 7.91663 6.33337 7.91663H6.53129C6.85921 7.91663 7.12504 7.65079 7.12504 7.32288C7.12504 6.99496 6.85921 6.72913 6.53129 6.72913H6.33337C5.59791 6.72913 5.23018 6.72913 4.92249 6.77786C3.22875 7.04612 1.90037 8.37453 1.63211 10.0682C1.58337 10.3759 1.58337 10.7437 1.58337 11.4791C1.58337 12.2146 1.58337 12.5823 1.63211 12.89C1.90037 14.5837 3.22874 15.9121 4.92249 16.1804C5.23018 16.2291 5.59791 16.2291 6.33337 16.2291H12.6667C13.4022 16.2291 13.7699 16.2291 14.0776 16.1804C15.7713 15.9121 17.0997 14.5837 17.3679 12.89C17.4167 12.5823 17.4167 12.2146 17.4167 11.4791C17.4167 10.7437 17.4167 10.3759 17.3679 10.0682C17.0997 8.37453 15.7713 7.04612 14.0776 6.77786C13.7699 6.72913 13.4022 6.72913 12.6667 6.72913H12.4688C12.1409 6.72913 11.875 6.99496 11.875 7.32288C11.875 7.65079 12.1409 7.91663 12.4688 7.91663H12.6667C13.4475 7.91663 13.6997 7.92035 13.8918 7.95075C15.0774 8.13853 16.0073 9.06842 16.1951 10.254C16.2255 10.4462 16.2292 10.6983 16.2292 11.4791C16.2292 12.2599 16.2255 12.5121 16.1951 12.7042C16.0073 13.8898 15.0774 14.8197 13.8918 15.0075C13.6997 15.0379 13.4475 15.0416 12.6667 15.0416Z" fill="black" fill-opacity="0.5"/>
</svg>
