<svg width="18" height="18" viewBox="0 0 18 18" fill="none" xmlns="http://www.w3.org/2000/svg">
<path d="M4.5 10.5C5.32843 10.5 6 9.82843 6 9C6 8.17157 5.32843 7.5 4.5 7.5C3.67157 7.5 3 8.17157 3 9C3 9.82843 3.67157 10.5 4.5 10.5Z" stroke="black" stroke-opacity="0.5" stroke-width="1.5"/>
<path d="M12.75 5.25C13.5784 5.25 14.25 4.57843 14.25 3.75C14.25 2.92157 13.5784 2.25 12.75 2.25C11.9216 2.25 11.25 2.92157 11.25 3.75C11.25 4.57843 11.9216 5.25 12.75 5.25Z" stroke="black" stroke-opacity="0.5" stroke-width="1.5"/>
<path d="M5.71875 7.9448L11.2301 4.76282" stroke="black" stroke-opacity="0.5" stroke-width="1.5"/>
<path d="M12.75 12.75C13.5784 12.75 14.25 13.4216 14.25 14.25C14.25 15.0784 13.5784 15.75 12.75 15.75C11.9216 15.75 11.25 15.0784 11.25 14.25C11.25 13.4216 11.9216 12.75 12.75 12.75Z" stroke="black" stroke-opacity="0.5" stroke-width="1.5"/>
<path d="M5.71875 10.2372L11.2301 13.4192" stroke="black" stroke-opacity="0.5" stroke-width="1.5"/>
</svg>
