<svg width="18" height="18" viewBox="0 0 18 18" fill="none" xmlns="http://www.w3.org/2000/svg">
<path d="M10.5 3.5625H4.5C3.15381 3.5625 2.0625 4.65381 2.0625 6V12C2.0625 13.3462 3.15381 14.4375 4.5 14.4375H10.5C11.8462 14.4375 12.9375 13.3462 12.9375 12V6C12.9375 4.65381 11.8462 3.5625 10.5 3.5625Z" stroke="black" stroke-opacity="0.5" stroke-width="1.5"/>
<path d="M10.6875 7.125C10.6875 6.40013 10.0999 5.8125 9.375 5.8125C8.65013 5.8125 8.0625 6.40013 8.0625 7.125C8.0625 7.84987 8.65013 8.4375 9.375 8.4375C10.0999 8.4375 10.6875 7.84987 10.6875 7.125Z" stroke="black" stroke-opacity="0.5" stroke-width="1.5"/>
<path d="M13.3125 7.53096C13.3125 7.22505 13.4617 6.93837 13.7124 6.76293L14.4624 6.23793C15.0837 5.80299 15.9375 6.2475 15.9375 7.00596V10.994C15.9375 11.7525 15.0837 12.197 14.4624 11.762L13.7124 11.237C13.4617 11.0616 13.3125 10.7749 13.3125 10.469V7.53096Z" stroke="black" stroke-opacity="0.5" stroke-width="1.5"/>
</svg>
