<svg width="25" height="24" viewBox="0 0 25 24" fill="none" xmlns="http://www.w3.org/2000/svg">
<mask id="mask0_31_321" style="mask-type:alpha" maskUnits="userSpaceOnUse" x="2" y="3" width="21" height="17">
<path fill-rule="evenodd" clip-rule="evenodd" d="M13.5728 4.5C13.067 3.57562 12.0918 3 11.0316 3H5.40803C3.73793 3 2.38403 4.34315 2.38403 6V8V14C2.38403 16.8284 2.38403 18.2426 3.26974 19.1213C4.15545 20 5.58098 20 8.43203 20H16.496C19.3471 20 20.7726 20 21.6583 19.1213C22.544 18.2426 22.544 16.8284 22.544 14V11.0694C22.544 9.13438 22.544 8.16685 22.111 7.45301C21.8565 7.03348 21.5023 6.68212 21.0794 6.42962C20.3599 6 19.3846 6 17.4341 6H16.1141C15.0539 6 14.0786 5.42438 13.5728 4.5Z" fill="white"/>
</mask>
<g mask="url(#mask0_31_321)">
<path d="M3.26954 19.1213L4.33869 18.0607L3.26954 19.1213ZM22.1108 7.45301L20.8153 8.22651L22.1108 7.45301ZM21.0792 6.42962L20.2995 7.71481L21.0792 6.42962ZM21.6581 19.1213L20.589 18.0607L21.6581 19.1213ZM5.40783 4.5H11.0314V1.5H5.40783V4.5ZM3.89583 8V6H0.871834V8H3.89583ZM3.89583 14V8H0.871834V14H3.89583ZM16.4958 18.5H8.43183V21.5H16.4958V18.5ZM21.0318 11.0694V14H24.0558V11.0694H21.0318ZM16.1139 7.5H17.4339V4.5H16.1139V7.5ZM16.1139 4.5C15.6081 4.5 15.1428 4.22537 14.9015 3.78436L12.2438 5.21564C13.0141 6.62338 14.4993 7.5 16.1139 7.5V4.5ZM0.871834 14C0.871834 15.3718 0.868622 16.5516 0.99603 17.4917C1.12929 18.475 1.42979 19.4175 2.2004 20.182L4.33869 18.0607C4.22359 17.9465 4.08124 17.7426 3.99307 17.0919C3.89905 16.3982 3.89583 15.4566 3.89583 14H0.871834ZM8.43183 18.5C6.96356 18.5 6.01447 18.4968 5.31516 18.4035C4.65934 18.3161 4.45379 18.1748 4.33869 18.0607L2.2004 20.182C2.971 20.9465 3.92107 21.2446 4.91221 21.3768C5.85986 21.5032 7.04905 21.5 8.43183 21.5V18.5ZM24.0558 11.0694C24.0558 10.1305 24.0573 9.32253 23.9952 8.6633C23.9307 7.98227 23.7882 7.30907 23.4063 6.67952L20.8153 8.22651C20.8664 8.3108 20.9404 8.47827 20.9843 8.94324C21.0303 9.43 21.0318 10.0733 21.0318 11.0694H24.0558ZM17.4339 7.5C18.4379 7.5 19.0864 7.50154 19.5771 7.54716C20.0457 7.59074 20.2146 7.66408 20.2995 7.71481L21.8589 5.14444C21.2243 4.76554 20.5457 4.62408 19.8592 4.56025C19.1948 4.49846 18.3803 4.5 17.4339 4.5V7.5ZM23.4063 6.67952C23.0245 6.05022 22.4932 5.52318 21.8589 5.14444L20.2995 7.71481C20.511 7.84106 20.688 8.01674 20.8153 8.22651L23.4063 6.67952ZM11.0314 4.5C11.5372 4.5 12.0025 4.77463 12.2438 5.21564L14.9015 3.78436C14.1312 2.37662 12.646 1.5 11.0314 1.5V4.5ZM16.4958 21.5C17.8786 21.5 19.0678 21.5032 20.0155 21.3768C21.0066 21.2446 21.9567 20.9465 22.7273 20.182L20.589 18.0607C20.4739 18.1748 20.2684 18.3161 19.6125 18.4035C18.9132 18.4968 17.9641 18.5 16.4958 18.5V21.5ZM21.0318 14C21.0318 15.4566 21.0286 16.3982 20.9346 17.0919C20.8465 17.7426 20.704 17.9465 20.589 18.0607L22.7273 20.182C23.4979 19.4175 23.7984 18.475 23.9317 17.4917C24.0591 16.5516 24.0558 15.3718 24.0558 14H21.0318ZM5.40783 1.5C2.90267 1.5 0.871834 3.51472 0.871834 6H3.89583C3.89583 5.17157 4.57278 4.5 5.40783 4.5V1.5Z" fill="#A585FF" fill-opacity="0.7"/>
<path d="M9.18799 14.25H15.74" stroke="#A585FF" stroke-opacity="0.7" stroke-width="1.5" stroke-linecap="round"/>
</g>
</svg>
