<svg width="16" height="16" viewBox="0 0 16 16" fill="none" xmlns="http://www.w3.org/2000/svg">
<mask id="mask0_2_453" style="mask-type:alpha" maskUnits="userSpaceOnUse" x="1" y="2" width="14" height="12">
<path fill-rule="evenodd" clip-rule="evenodd" d="M8.73334 3C8.39881 2.38375 7.75381 2 7.05261 2H3.33334C2.22878 2 1.33334 2.89543 1.33334 4V5.33333V9.33333C1.33334 11.2189 1.33334 12.1617 1.91913 12.7475C2.50492 13.3333 3.44772 13.3333 5.33334 13.3333H10.6667C12.5523 13.3333 13.4951 13.3333 14.0809 12.7475C14.6667 12.1617 14.6667 11.2189 14.6667 9.33333V7.3796C14.6667 6.08959 14.6667 5.44457 14.3803 4.96867C14.2119 4.68899 13.9777 4.45475 13.698 4.28641C13.2221 4 12.5771 4 11.2871 4H10.4141C9.71288 4 9.06788 3.61625 8.73334 3Z" fill="white"/>
</mask>
<g mask="url(#mask0_2_453)">
<path d="M1.91914 12.7475L2.62624 12.0405L1.91914 12.7475ZM14.3803 4.96867L13.5235 5.48434L14.3803 4.96867ZM13.698 4.28641L13.1823 5.14321L13.698 4.28641ZM14.0809 12.7475L13.3738 12.0405L14.0809 12.7475ZM3.33335 3H7.05262V1H3.33335V3ZM2.33335 5.33333V4H0.333348V5.33333H2.33335ZM2.33335 9.33333V5.33333H0.333348V9.33333H2.33335ZM10.6667 12.3333H5.33335V14.3333H10.6667V12.3333ZM13.6667 7.3796V9.33333H15.6667V7.3796H13.6667ZM10.4141 5H11.2871V3H10.4141V5ZM10.4141 3C10.0795 3 9.77182 2.81691 9.61222 2.52291L7.85448 3.47709C8.36395 4.41559 9.34622 5 10.4141 5V3ZM0.333348 9.33333C0.333348 10.2479 0.331224 11.0344 0.415489 11.6611C0.503621 12.3167 0.702368 12.945 1.21203 13.4547L2.62624 12.0405C2.55012 11.9643 2.45597 11.8284 2.39766 11.3946C2.33548 10.9321 2.33335 10.3044 2.33335 9.33333H0.333348ZM5.33335 12.3333C4.36227 12.3333 3.73456 12.3312 3.27206 12.269C2.83832 12.2107 2.70237 12.1165 2.62624 12.0405L1.21203 13.4547C1.72169 13.9643 2.35004 14.1631 3.00555 14.2512C3.63231 14.3355 4.41881 14.3333 5.33335 14.3333V12.3333ZM15.6667 7.3796C15.6667 6.75367 15.6677 6.21502 15.6265 5.77553C15.5839 5.32151 15.4897 4.87271 15.2371 4.45301L13.5235 5.48434C13.5573 5.54053 13.6062 5.65218 13.6352 5.96216C13.6657 6.28667 13.6667 6.71553 13.6667 7.3796H15.6667ZM11.2871 5C11.9511 5 12.38 5.00103 12.7045 5.03144C13.0145 5.06049 13.1261 5.10939 13.1823 5.14321L14.2137 3.42963C13.7939 3.17703 13.3451 3.08272 12.8911 3.04017C12.4517 2.99897 11.913 3 11.2871 3V5ZM15.2371 4.45301C14.9845 4.03348 14.6332 3.68212 14.2137 3.42963L13.1823 5.14321C13.3222 5.22737 13.4393 5.34449 13.5235 5.48434L15.2371 4.45301ZM7.05262 3C7.38715 3 7.69488 3.18309 7.85448 3.47709L9.61222 2.52291C9.10275 1.58441 8.12048 1 7.05262 1V3ZM10.6667 14.3333C11.5812 14.3333 12.3677 14.3355 12.9945 14.2512C13.65 14.1631 14.2783 13.9643 14.788 13.4547L13.3738 12.0405C13.2977 12.1165 13.1617 12.2107 12.7279 12.269C12.2655 12.3312 11.6377 12.3333 10.6667 12.3333V14.3333ZM13.6667 9.33333C13.6667 10.3044 13.6645 10.9321 13.6023 11.3946C13.5441 11.8284 13.4499 11.9643 13.3738 12.0405L14.788 13.4547C15.2977 12.945 15.4964 12.3167 15.5845 11.6611C15.6688 11.0344 15.6667 10.2479 15.6667 9.33333H13.6667ZM3.33335 1C1.67649 1 0.333348 2.34315 0.333348 4H2.33335C2.33335 3.44771 2.78106 3 3.33335 3V1Z" fill="#A585FF"/>
<path d="M5.83334 9.5H10.1667" stroke="#A585FF" stroke-width="1.5" stroke-linecap="round"/>
</g>
</svg>
