<svg width="14" height="16" viewBox="0 0 14 16" fill="none" xmlns="http://www.w3.org/2000/svg">
<g clip-path="url(#clip0_2_462)">
<path d="M11.2292 5.46028C11.793 5.46028 12.2501 4.97682 12.2501 4.38044C12.2501 3.78406 11.793 3.3006 11.2292 3.3006C10.6654 3.3006 10.2084 3.78406 10.2084 4.38044C10.2084 4.97682 10.6654 5.46028 11.2292 5.46028Z" stroke="#A585FF" stroke-width="1.5"/>
<path d="M7.14588 9.47114C7.70967 9.47114 8.16672 8.98768 8.16672 8.3913C8.16672 7.79492 7.70967 7.31146 7.14588 7.31146C6.58209 7.31146 6.12505 7.79492 6.12505 8.3913C6.12505 8.98768 6.58209 9.47114 7.14588 9.47114Z" stroke="#A585FF" stroke-width="1.5"/>
<path fill-rule="evenodd" clip-rule="evenodd" d="M8.75006 4.38045C8.75006 4.12486 8.55418 3.91766 8.31256 3.91766L2.18756 3.91766C1.94594 3.91766 1.75006 4.12486 1.75006 4.38045C1.75006 4.63604 1.94594 4.84324 2.18756 4.84324H8.31256C8.55418 4.84324 8.75006 4.63604 8.75006 4.38045Z" fill="#A585FF"/>
<path fill-rule="evenodd" clip-rule="evenodd" d="M12.2501 12.4021C12.2501 12.1465 12.0542 11.9393 11.8126 11.9393H5.68756C5.44594 11.9393 5.25006 12.1465 5.25006 12.4021C5.25006 12.6577 5.44594 12.8649 5.68756 12.8649H11.8126C12.0542 12.8649 12.2501 12.6577 12.2501 12.4021Z" fill="#A585FF"/>
<path fill-rule="evenodd" clip-rule="evenodd" d="M12.2501 8.39126C12.2501 8.64684 12.0542 8.85404 11.8126 8.85404H9.77089C9.52927 8.85404 9.33339 8.64684 9.33339 8.39126C9.33339 8.13567 9.52927 7.92847 9.77089 7.92847H11.8126C12.0542 7.92847 12.2501 8.13567 12.2501 8.39126ZM4.66673 8.39126C4.66673 8.13567 4.47085 7.92847 4.22923 7.92847H2.18756C1.94595 7.92847 1.75006 8.13567 1.75006 8.39126C1.75006 8.64684 1.94595 8.85404 2.18756 8.85404H4.22923C4.47085 8.85404 4.66673 8.64684 4.66673 8.39126Z" fill="#A585FF"/>
<path d="M2.77088 13.4819C3.33467 13.4819 3.79172 12.9985 3.79172 12.4021C3.79172 11.8057 3.33467 11.3223 2.77088 11.3223C2.20709 11.3223 1.75005 11.8057 1.75005 12.4021C1.75005 12.9985 2.20709 13.4819 2.77088 13.4819Z" stroke="#A585FF" stroke-width="1.5"/>
</g>
<defs>
<clipPath id="clip0_2_462">
<rect width="14.8092" height="14" fill="white" transform="translate(14.0001 0.832397) rotate(90)"/>
</clipPath>
</defs>
</svg>
