<svg width="22" height="23" viewBox="0 0 22 23" fill="none" xmlns="http://www.w3.org/2000/svg">
<g clip-path="url(#clip0_31_314)">
<path d="M17.042 7.18119C17.8538 7.18119 18.512 6.43099 18.512 5.50557C18.512 4.58015 17.8538 3.82996 17.042 3.82996C16.2301 3.82996 15.572 4.58015 15.572 5.50557C15.572 6.43099 16.2301 7.18119 17.042 7.18119Z" stroke="#A585FF" stroke-opacity="0.7" stroke-width="1.5"/>
<path d="M11.1621 13.4049C11.9739 13.4049 12.6321 12.6547 12.6321 11.7293C12.6321 10.8039 11.9739 10.0537 11.1621 10.0537C10.3502 10.0537 9.69208 10.8039 9.69208 11.7293C9.69208 12.6547 10.3502 13.4049 11.1621 13.4049Z" stroke="#A585FF" stroke-opacity="0.7" stroke-width="1.5"/>
<path fill-rule="evenodd" clip-rule="evenodd" d="M13.4719 5.5056C13.4719 5.10899 13.1899 4.78748 12.8419 4.78748L4.02193 4.78748C3.674 4.78748 3.39193 5.10899 3.39193 5.5056C3.39193 5.9022 3.674 6.22372 4.02193 6.22372L12.8419 6.22372C13.1899 6.22372 13.4719 5.9022 13.4719 5.5056Z" fill="#A585FF" fill-opacity="0.7"/>
<path fill-rule="evenodd" clip-rule="evenodd" d="M18.512 17.953C18.512 17.5565 18.2299 17.2349 17.882 17.2349H9.06196C8.71404 17.2349 8.43196 17.5565 8.43196 17.953C8.43196 18.3496 8.71404 18.6712 9.06196 18.6712H17.882C18.2299 18.6712 18.512 18.3496 18.512 17.953Z" fill="#A585FF" fill-opacity="0.7"/>
<path fill-rule="evenodd" clip-rule="evenodd" d="M18.512 11.7293C18.512 12.1259 18.2299 12.4474 17.882 12.4474H14.942C14.594 12.4474 14.312 12.1259 14.312 11.7293C14.312 11.3327 14.594 11.0112 14.942 11.0112H17.882C18.2299 11.0112 18.512 11.3327 18.512 11.7293ZM7.59197 11.7293C7.59197 11.3327 7.30989 11.0112 6.96197 11.0112H4.02197C3.67404 11.0112 3.39197 11.3327 3.39197 11.7293C3.39197 12.1259 3.67404 12.4474 4.02197 12.4474L6.96197 12.4474C7.30989 12.4474 7.59197 12.1259 7.59197 11.7293Z" fill="#A585FF" fill-opacity="0.7"/>
<path d="M4.86203 19.6286C5.67389 19.6286 6.33203 18.8784 6.33203 17.953C6.33203 17.0276 5.67389 16.2774 4.86203 16.2774C4.05017 16.2774 3.39203 17.0276 3.39203 17.953C3.39203 18.8784 4.05017 19.6286 4.86203 19.6286Z" stroke="#A585FF" stroke-opacity="0.7" stroke-width="1.5"/>
</g>
<defs>
<clipPath id="clip0_31_314">
<rect width="22.9799" height="20.16" fill="white" transform="translate(21.032) rotate(90)"/>
</clipPath>
</defs>
</svg>
