<svg width="15" height="15" viewBox="0 0 15 15" fill="none" xmlns="http://www.w3.org/2000/svg">
<path d="M6.94799 2.28929C7.18299 1.84685 7.81699 1.84685 8.05199 2.28929L9.27449 4.59107C9.36481 4.76117 9.52856 4.8801 9.71824 4.91346L12.2851 5.36486C12.7786 5.45162 12.9744 6.05457 12.6262 6.41477L10.8149 8.28877C10.6811 8.42721 10.6186 8.61971 10.6454 8.8104L11.0094 11.3911C11.0793 11.8872 10.5664 12.2598 10.1162 12.04L7.77424 10.8965C7.60118 10.8119 7.39881 10.8119 7.22574 10.8965L4.88376 12.04C4.43359 12.2598 3.92069 11.8872 3.99064 11.3911L4.35456 8.8104C4.38145 8.61971 4.31892 8.42721 4.18507 8.28877L2.37372 6.41477C2.02555 6.05457 2.22146 5.45162 2.71487 5.36486L5.28177 4.91346C5.47145 4.8801 5.63516 4.76116 5.7255 4.59107L6.94799 2.28929Z" stroke="#A585FF" stroke-width="1.5"/>
</svg>
