<svg width="26" height="24" viewBox="0 0 26 24" fill="none" xmlns="http://www.w3.org/2000/svg">
<path d="M12.1018 3.66283C12.4808 2.95492 13.5033 2.95492 13.8823 3.66283L15.854 7.34568C15.9996 7.61783 16.2637 7.80813 16.5696 7.8615L20.7095 8.58374C21.5053 8.72256 21.8212 9.68727 21.2597 10.2636L18.3384 13.262C18.1225 13.4835 18.0217 13.7915 18.065 14.0966L18.652 18.2258C18.7648 19.0195 17.9375 19.6157 17.2115 19.264L13.4343 17.4343C13.1552 17.299 12.8288 17.299 12.5497 17.4343L8.77258 19.264C8.04653 19.6157 7.21934 19.0195 7.33215 18.2258L7.91907 14.0966C7.96244 13.7915 7.86159 13.4835 7.64572 13.262L4.72438 10.2636C4.16285 9.68727 4.47882 8.72256 5.27458 8.58374L9.41448 7.8615C9.7204 7.80813 9.98443 7.61782 10.1301 7.34568L12.1018 3.66283Z" stroke="#A585FF" stroke-opacity="0.7" stroke-width="1.5"/>
</svg>
