<svg width="19" height="19" viewBox="0 0 19 19" fill="none" xmlns="http://www.w3.org/2000/svg">
<g clip-path="url(#clip0_24_710)">
<path d="M17.6145 9.49996C17.6145 5.0184 13.9815 1.38538 9.49996 1.38538C5.0184 1.38538 1.38538 5.0184 1.38538 9.49996C1.38538 13.9815 5.0184 17.6145 9.49996 17.6145C13.9815 17.6145 17.6145 13.9815 17.6145 9.49996Z" stroke="black" stroke-opacity="0.5" stroke-width="1.5"/>
<path d="M6.33329 10.2917C6.77052 10.2917 7.12496 9.93727 7.12496 9.50004C7.12496 9.06282 6.77052 8.70837 6.33329 8.70837C5.89607 8.70837 5.54163 9.06282 5.54163 9.50004C5.54163 9.93727 5.89607 10.2917 6.33329 10.2917Z" fill="black" fill-opacity="0.5"/>
<path d="M9.50004 10.2917C9.93727 10.2917 10.2917 9.93727 10.2917 9.50004C10.2917 9.06282 9.93727 8.70837 9.50004 8.70837C9.06282 8.70837 8.70837 9.06282 8.70837 9.50004C8.70837 9.93727 9.06282 10.2917 9.50004 10.2917Z" fill="black" fill-opacity="0.5"/>
<path d="M12.6667 10.2917C13.1039 10.2917 13.4583 9.93727 13.4583 9.50004C13.4583 9.06282 13.1039 8.70837 12.6667 8.70837C12.2294 8.70837 11.875 9.06282 11.875 9.50004C11.875 9.93727 12.2294 10.2917 12.6667 10.2917Z" fill="black" fill-opacity="0.5"/>
</g>
<defs>
<clipPath id="clip0_24_710">
<rect width="19" height="19" fill="white"/>
</clipPath>
</defs>
</svg>
