<svg width="12" height="13" viewBox="0 0 12 13" fill="none" xmlns="http://www.w3.org/2000/svg">
<path d="M5.37539 0.800854C5.6413 0.289852 6.3587 0.289852 6.62461 0.800854L8.00793 3.4593C8.11012 3.65576 8.29541 3.79312 8.51005 3.83165L11.4146 4.35299C11.9729 4.4532 12.1946 5.14957 11.8006 5.56559L9.751 7.72998C9.59952 7.88986 9.52879 8.11219 9.55921 8.33243L9.97102 11.3131C10.0502 11.886 9.46974 12.3164 8.96041 12.0625L6.31033 10.7417C6.1145 10.6441 5.8855 10.6441 5.68967 10.7417L3.03962 12.0625C2.53022 12.3164 1.94986 11.886 2.02901 11.3131L2.44079 8.33243C2.47123 8.11219 2.40047 7.88986 2.24901 7.72998L0.199395 5.56559C-0.194581 5.14957 0.0271026 4.4532 0.585414 4.35299L3.48998 3.83165C3.70461 3.79312 3.88986 3.65575 3.99208 3.4593L5.37539 0.800854Z" fill="black" fill-opacity="0.5"/>
</svg>
