<svg width="14" height="14" viewBox="0 0 14 14" fill="none" xmlns="http://www.w3.org/2000/svg">
<path d="M6.37539 1.80085C6.6413 1.28985 7.3587 1.28985 7.62461 1.80085L9.00793 4.4593C9.11012 4.65576 9.29541 4.79312 9.51005 4.83165L12.4146 5.35299C12.9729 5.4532 13.1946 6.14957 12.8006 6.56559L10.751 8.72998C10.5995 8.88986 10.5288 9.11219 10.5592 9.33243L10.971 12.3131C11.0502 12.886 10.4697 13.3164 9.96041 13.0625L7.31033 11.7417C7.1145 11.6441 6.8855 11.6441 6.68967 11.7417L4.03962 13.0625C3.53022 13.3164 2.94986 12.886 3.02901 12.3131L3.44079 9.33243C3.47123 9.11219 3.40047 8.88986 3.24901 8.72998L1.19939 6.56559C0.805419 6.14957 1.0271 5.4532 1.58541 5.35299L4.48998 4.83165C4.70461 4.79312 4.88986 4.65575 4.99208 4.4593L6.37539 1.80085Z" fill="#A585FF" stroke="#A585FF" stroke-width="1.5"/>
</svg>
